<svg viewBox="0 0 35 36" version="1.1"
  xmlns="http://www.w3.org/2000/svg"
  xmlns:xlink="http://www.w3.org/1999/xlink">
  <g id="Symbols" stroke="none" stroke-width="1" fill="none" fill-rule="evenodd">
    <g id="Footer" transform="translate(-477.000000, -116.000000)">
      <g id="Group-23" transform="translate(476.799865, 116.159932)">
        <g id="Group-18">
          <path d="M0.188826307,17.8786074 C0.188826307,8.20404186 8.03161036,0.361257805 17.7061759,0.361257805 C27.3807413,0.361257805 35.2235254,8.20404186 35.2235254,17.8786074 C35.2235254,27.5531728 27.3807413,35.3959569 17.7061759,35.3959569 C8.03161036,35.3959569 0.188826307,27.5531728 0.188826307,17.8786074 Z" id="fb-icon-bg"></path>
          <path d="M18.9481232,27.5945153 L18.9481232,18.0641523 L21.5789202,18.0641523 L21.9275576,14.7799364 L18.9481232,14.7799364 L18.9525929,13.1361548 C18.9525929,12.2795807 19.0339788,11.8206087 20.2642666,11.8206087 L21.9089338,11.8206087 L21.9089338,8.53602093 L19.2777643,8.53602093 C16.1173066,8.53602093 15.0049075,10.129219 15.0049075,12.8084771 L15.0049075,14.7803084 L13.0348826,14.7803084 L13.0348826,18.0645242 L15.0049075,18.0645242 L15.0049075,27.5945153 L18.9481232,27.5945153 Z" id="Shape" fill="#FFFFFF"></path>
        </g>
      </g>
    </g>
  </g>
</svg>
