<?xml version="1.0" encoding="utf-8"?>
<svg version="1.1" id="Layer_1" xmlns="http://www.w3.org/2000/svg" xmlns:xlink="http://www.w3.org/1999/xlink" x="0px" y="0px" viewBox="0 0 194.4 38.3" style="enable-background:new 0 0 194.4 38.3;" xml:space="preserve" class="logo__text">
    <style type="text/css">
        .st3 {
            fill: white;
        }
    </style>
    <g id="Group_32019" transform="translate(-113 -84)">
        <path id="Path_291" class="st3 logo__colour" d="M244.3,89.4v-0.5l1.2-0.5v-0.7c0-2.9,1.9-3.7,3.3-3.7s2.4,0.8,2.4,1.9c0,0.6-0.4,1.1-1,1.2
        c0,0,0,0,0,0c-0.5,0-1-0.4-1-0.9c0,0,0,0,0,0c0-0.5,0.3-1,0.9-1V85c-0.2-0.1-0.5-0.2-0.8-0.2c-1.1,0-1.6,0.5-1.6,1.9v1.6h1.9v1
        h-1.9v5.7h1.4v0.8h-4.6v-0.8h1.1v-5.7H244.3z M239.8,95.2c1,0,1.6-0.5,1.6-3.1c0-2.7-0.7-3.1-1.6-3.1s-1.7,0.4-1.7,3.1
        C238.1,94.7,238.8,95.2,239.8,95.2 M239.8,96c-2.2,0-3.9-1.8-3.9-4c0-2.2,1.8-3.9,4-3.9c2.2,0,3.9,1.8,3.9,3.9
        C243.7,94.2,241.9,96,239.8,96 M227.6,95.9l-2.9-6.7H224v-0.8h4.3v0.8h-1.1l1.8,4.9l1.7-4.9h-0.9v-0.8h2.9v0.8h-0.7l-3.4,8
        c-0.7,1.6-1.4,2.1-2.5,2.1c-0.8,0.1-1.4-0.5-1.5-1.2c0,0,0-0.1,0-0.1c0-0.6,0.4-1,1-1c0,0,0,0,0,0c0.5,0,0.9,0.3,0.9,0.8
        c0,0,0,0.1,0,0.1c0,0.2-0.1,0.5-0.3,0.6l0,0.1c0.6,0,1.1-0.5,1.5-1.7l0.4-1H227.6z M218.2,89.4v-0.5l1.2-0.4l1.3-2.8h0.8v2.7h1.9v1
        h-1.9v4.8c0,0.4,0.2,0.6,0.8,0.6c0.4,0,0.7-0.1,1.1-0.2l0.2,0.5c-0.6,0.6-1.4,0.9-2.2,0.9c-1.5,0-2-0.9-2-2.6v-4L218.2,89.4z
        M214.4,88.9c-0.8,0-1.3,0.3-1.5,2.2h2.6C215.4,89.4,215.2,88.9,214.4,88.9 M214.3,96c-2.5,0-3.7-1.7-3.7-3.8
        c-0.1-2.1,1.5-3.9,3.6-4c0.1,0,0.1,0,0.2,0c1.8,0,3.2,1.1,3.3,3.8h-4.8v0c0,2.3,0.5,2.9,2,2.9c0.7,0,1.5-0.2,2.1-0.4l0.3,0.5
        C216.5,95.6,215.4,96,214.3,96 M205.9,95.9v-0.8h1.1v-4.8l-1.3-0.6v-0.4l2.9-1.1h0.5v6.9h1v0.8L205.9,95.9z M208,87.1
        c-0.7,0-1.3-0.6-1.3-1.3c0-0.7,0.6-1.3,1.3-1.3c0.7,0,1.3,0.6,1.3,1.3C209.3,86.5,208.7,87,208,87.1 M202,96
        c-2,0.1-3.8-1.5-3.8-3.6c0-0.1,0-0.2,0-0.3c0-2.1,1.7-3.9,3.8-4c0.1,0,0.2,0,0.2,0c1.6,0,2.7,0.7,2.7,2c0,0.6-0.5,1.1-1.1,1.1
        c0,0,0,0,0,0c-0.6,0-1.1-0.4-1.1-1c0-0.5,0.3-0.9,0.7-1v-0.1c-0.3-0.1-0.6-0.2-1-0.2c-1.2,0-2,0.5-2,2.9c0,2.5,0.8,3,2.2,3
        c0.6,0,1.3-0.1,1.9-0.4l0.3,0.5C204,95.6,203,96,202,96 M193.4,95.2c1,0,1.6-0.5,1.6-3.1c0-2.7-0.7-3.1-1.6-3.1s-1.7,0.4-1.7,3.1
        C191.8,94.7,192.5,95.2,193.4,95.2 M193.4,96c-2.2,0-3.9-1.8-3.9-4c0-2.2,1.8-3.9,4-3.9c2.2,0,3.9,1.8,3.9,3.9
        C197.3,94.2,195.6,96,193.4,96 M184.7,96c-1.1,0-2.1-0.3-2.9-1l-0.4,0.9h-0.7l-0.4-4l0.5-0.1c1.5,2.5,2.2,3.2,3.9,3.2
        c1.2,0,2-0.4,2-1.4c0-1.1-0.5-1.5-2.5-2.1c-2.2-0.7-3.5-1.6-3.5-3.5c0-1.7,1.3-2.9,3.3-2.9c0.9,0,1.7,0.3,2.4,0.9l0.4-0.7h0.6
        l0.3,3.2l-0.4,0.1c-1.3-1.9-1.9-2.4-3.3-2.4c-1,0-1.6,0.4-1.6,1.2c0,1,0.5,1.2,2.5,1.8c2.1,0.6,3.7,1.7,3.7,3.5
        C188.4,94.7,187,96,184.7,96 M171.4,95.9v-0.8h1.1v-8.9l-1.3-0.6v-0.4l2.9-1.1h0.5v11h1v0.8L171.4,95.9z M166.2,94.7
        c0.6,0,1.1-0.3,1.5-0.8v-1.7l-1.1,0.4c-1,0.3-1.2,0.6-1.2,1.3C165.4,94.5,165.7,94.7,166.2,94.7 M165.2,96c-1,0.1-1.9-0.6-2-1.6
        c0-0.1,0-0.1,0-0.2c0-1.4,1-2,3.1-2.4l1.3-0.2v-1.1c0-1.2-0.6-1.5-1.8-1.5c-0.3,0-0.7,0-1,0.2v0.1c0.4,0.1,0.7,0.5,0.7,1
        c0,0.5-0.4,0.9-1,0.9c0,0,0,0,0,0c-0.6,0-1.1-0.4-1.1-1c0,0,0-0.1,0-0.1c0-1.3,1.7-1.9,3.2-1.9c2,0,3.1,0.8,3.1,3.5v2.7
        c0,0.5,0.2,0.5,1,0.6v0.5c-0.5,0.3-1,0.5-1.6,0.5c-0.8,0.1-1.4-0.4-1.5-1.2c0-0.1,0-0.1,0-0.2C167.1,95.4,166.2,95.9,165.2,96
        M158.3,95.9v-0.8h1.1v-4.8l-1.3-0.6v-0.4l2.9-1.1h0.5v6.9h1v0.8L158.3,95.9z M160.4,87.1c-0.7,0-1.3-0.6-1.3-1.3s0.6-1.3,1.3-1.3
        s1.3,0.6,1.3,1.3l0,0C161.7,86.5,161.1,87,160.4,87.1 M151,95.9v-0.8h1.1v-4.8l-1.2-0.6v-0.4l2.7-1.1h0.5l-0.2,1.9l0,0
        c0.7-1.3,1.6-2,2.5-2c0.8,0,1.4,0.5,1.4,1.3c0,0,0,0,0,0.1c0,0.7-0.5,1.3-1.2,1.3c0,0,0,0,0,0c-0.5,0.1-1-0.4-1.1-0.9
        c0,0,0-0.1,0-0.1c0-0.2,0.1-0.4,0.2-0.5l0,0c-0.7,0.3-1.3,0.8-1.6,1.5v4.4h1.3v0.8L151,95.9z M147,88.9c-0.8,0-1.3,0.3-1.5,2.2h2.6
        C148.1,89.4,147.8,88.9,147,88.9 M147,96c-2.5,0-3.7-1.7-3.7-3.8c-0.1-2.1,1.5-3.9,3.6-4c0.1,0,0.1,0,0.2,0c1.8,0,3.2,1.1,3.3,3.8
        h-4.8v0c0,2.3,0.5,2.9,2,2.9c0.7,0,1.5-0.2,2.1-0.4l0.3,0.5C149.1,95.6,148.1,96,147,96 M136.9,90.4v4.1c0.4,0.4,0.9,0.6,1.5,0.6
        c0.5,0,0.9-0.1,1.2-0.4c0.5-0.8,0.6-1.7,0.5-2.7c0.1-0.8-0.1-1.6-0.5-2.3c-0.3-0.2-0.6-0.3-0.9-0.3C138,89.4,137.3,89.8,136.9,90.4
        M133.7,99.1v-0.8h1.1v-8.1l-1.2-0.6v-0.4l2.7-1.1h0.5l-0.2,1.7l0,0c0.6-1.1,1.7-1.8,2.9-1.9c1.6,0,2.9,1.5,2.9,3.9
        c0,2.6-1.6,4-3.5,4c-0.8,0-1.5-0.3-2-0.8v3.2h1.3v0.8L133.7,99.1z M120,95.9v-0.8h1.1v-4.8l-1.2-0.6v-0.4l2.7-1.1h0.5l-0.2,1.8l0,0
        c0.8-1,1.6-1.9,2.8-1.9c1,0,1.8,0.7,2,1.7c0.6-0.9,1.5-1.6,2.6-1.7c1.4,0,2.1,1,2.1,2.5v4.4h0.9v0.8h-3.8v-0.8h0.8v-4.7
        c0-0.7-0.3-0.9-0.9-0.9c-0.6,0.1-1.2,0.3-1.7,0.7v4.8h0.8v0.8h-3.7v-0.8h0.8v-4.6c0-0.7-0.3-0.9-0.9-0.9c-0.6,0-1.2,0.4-1.7,0.9
        v4.7h0.8v0.8L120,95.9z M113.7,95.9v-0.6l1.5-0.4v-8.9l-1.5-0.4v-0.6h5.4v0.6l-1.5,0.4v8.9l1.5,0.4v0.6L113.7,95.9z M304.4,119.2
        c0,1.2-0.7,2-3.4,2c-2,0-2.4-0.7-2.4-1.6c0-0.7,0.2-1.3,0.6-1.8c0.9,0.1,1.8,0.2,2.7,0.2C304,117.9,304.4,118.1,304.4,119.2
        M299.8,110.7c0-2.1,0.3-2.4,1.4-2.4c1.1,0,1.4,0.4,1.4,2.4c0,2.1-0.3,2.5-1.4,2.5C300.1,113.3,299.8,112.8,299.8,110.7
        M306.7,118.2c0-1.5-1.2-2.5-3.9-2.7c-3.5-0.2-3.8-0.2-3.8-0.7c0-0.3,0.2-0.7,0.4-1c0.6,0.2,1.2,0.4,1.9,0.4c2.5,0,4.1-1.6,4.1-3.2
        c0-0.7-0.3-1.3-0.8-1.7l0.1-0.1c0.5,0.3,1,0.4,1.5,0.4c0.7,0,1.3-0.5,1.4-1.2c0-0.1,0-0.1,0-0.2c0-0.7-0.5-1.2-1.2-1.2c0,0,0,0,0,0
        c-0.5,0-1,0.3-1,0.9c0,0,0,0.1,0,0.1c0,0.3,0.1,0.6,0.4,0.7v0.1c-1.4,0-1.9-1.3-4.4-1.3c-2.5,0-4.1,1.6-4.1,3.4
        c0,1.1,0.6,2.2,1.6,2.8c-0.9,0.5-1.5,1.4-1.6,2.4c0,0.8,0.5,1.5,1.3,1.6c-1.2,0.4-2,1.1-2,2.1c0,1.6,2.1,2.6,4.7,2.6
        C304.1,122.3,306.7,121,306.7,118.2 M289.6,117.7v-1h-1.1v-6.2c0.6-0.7,1.5-1.1,2.4-1.1c0.8,0,1.2,0.3,1.2,1.2v6.2h-1.1v1h5.1v-1
        h-1.2v-5.9c0-2.1-1-3.4-2.9-3.4c-1.6,0-2.8,1.1-3.9,2.5l0,0l0.3-2.4h-0.6l-3.7,1.4v0.6l1.6,0.7v6.4h-1.4v1L289.6,117.7z
        M283.5,117.7v-1h-1.4v-9.2h-0.6l-3.8,1.4v0.6l1.7,0.7v6.4h-1.5v1L283.5,117.7z M282.5,104.2c0-1-0.8-1.7-1.7-1.7
        c-1,0-1.7,0.8-1.7,1.7c0,1,0.8,1.7,1.7,1.7C281.7,105.9,282.4,105.2,282.5,104.2 M276.8,116.5l-0.3-0.7c-0.8,0.3-1.6,0.5-2.5,0.5
        c-1.7,0-2.9-0.6-2.9-4c0-3.2,1-3.9,2.6-3.9c0.4,0,0.9,0,1.3,0.2v0.1c-0.7,0.2-1.1,1-0.9,1.8c0.2,0.6,0.8,1,1.4,1
        c0.8,0,1.5-0.7,1.5-1.5c0,0,0,0,0,0c0-1.7-1.5-2.6-3.6-2.6c-2.9-0.1-5.3,2.1-5.4,5c0,0.1,0,0.2,0,0.3c-0.2,2.7,1.9,5.1,4.7,5.2
        c0.1,0,0.3,0,0.4,0C274.4,117.9,275.7,117.4,276.8,116.5 M260.9,117.7v-1h-1.1v-6.2c0.6-0.7,1.5-1.1,2.4-1.1c0.8,0,1.2,0.3,1.2,1.2
        v6.2h-1.1v1h5.1v-1h-1.2v-5.9c0-2.1-1-3.4-2.9-3.4c-1.6,0-2.8,1.1-3.9,2.5l0,0l0.3-2.4h-0.6l-3.7,1.4v0.6l1.6,0.7v6.4h-1.4v1
        L260.9,117.7z M247.8,115c0-0.9,0.3-1.3,1.6-1.7l1.4-0.5v2.3c-0.4,0.7-1.2,1.1-2,1.1C248.2,116.2,247.8,115.9,247.8,115 M250.8,116
        c0,1,0.8,1.9,1.8,1.9c0.1,0,0.2,0,0.3,0c0.8,0,1.5-0.3,2.1-0.7v-0.7c-1.2-0.1-1.4-0.2-1.4-0.8v-3.6c0-3.6-1.5-4.7-4.1-4.7
        c-1.9,0-4.2,0.8-4.2,2.6c-0.1,0.8,0.5,1.4,1.3,1.5c0,0,0.1,0,0.1,0c0.7,0,1.3-0.5,1.3-1.2c0,0,0,0,0-0.1c0-0.6-0.3-1.1-0.9-1.3
        v-0.1c0.4-0.2,0.8-0.3,1.3-0.2c1.6,0,2.4,0.4,2.4,1.9v1.5l-1.7,0.3c-2.8,0.5-4.1,1.4-4.1,3.2c0,1.3,1.1,2.4,2.4,2.3
        c0.1,0,0.2,0,0.2,0C248.9,117.8,250.1,117.1,250.8,116 M234,104.7h1.5c3.5,0,4.7,1.2,4.7,5.9c0,4.5-1.1,5.9-4.7,5.9H234L234,104.7z
        M235.8,117.7c5,0,7.9-3.3,7.9-7.2c0-3.9-3-7.2-7.9-7.2h-7.1v0.7l1.8,0.5v11.8l-1.8,0.5v0.7L235.8,117.7z M216.1,109.1v7.6h-1.5v1
        h6.2v-1h-1.9v-7.6h2.5v-1.4h-2.5v-2.2c0-1.9,0.6-2.6,2.1-2.6c0.4,0,0.7,0.1,1.1,0.3v0.1c-0.7,0.1-1.2,0.7-1.2,1.4
        c0,0.7,0.6,1.3,1.4,1.2c0,0,0,0,0,0c0.8,0,1.5-0.7,1.5-1.5c0,0,0,0,0-0.1c0-1.5-1.2-2.6-3.2-2.6s-4.4,1.1-4.4,4.9v1l-1.7,0.6v0.7
        L216.1,109.1z M206.4,112.6c0-3.6,1-4.1,2.2-4.1s2.2,0.5,2.2,4.1c0,3.5-0.9,4.1-2.2,4.1S206.4,116.1,206.4,112.6 M213.8,112.6
        c0-2.9-2.3-5.3-5.3-5.3c-2.9,0-5.3,2.3-5.3,5.3c0,2.9,2.3,5.3,5.3,5.3c0,0,0,0,0,0C211.5,117.9,213.8,115.5,213.8,112.6 M198,114.8
        c0-1.9-1.3-2.8-4.1-3.7c-1.6-0.5-2.1-0.7-2.1-1.6c0-0.7,0.5-1.1,1.5-1.1c1.2,0,2.1,0.5,3.2,2.2l0.5-0.2l-0.2-3h-0.7l-0.4,0.7
        c-0.7-0.5-1.6-0.8-2.6-0.8c-1.9,0-3.5,1-3.5,3c0,1.6,0.7,2.7,3.6,3.5c1.8,0.5,2.4,0.8,2.4,1.7c0,0.7-0.5,1.2-1.7,1.2
        c-1.6,0-2.6-0.7-3.8-2.8l-0.6,0.1l0.3,3.6h0.7l0.4-0.9c0.9,0.7,2,1.1,3.2,1.1C196.6,117.9,198,116.6,198,114.8 M185.8,117.7v-1
        h-1.7v-5.9c0.4-0.9,1.2-1.6,2.1-1.9l0,0.1c-0.2,0.2-0.3,0.5-0.3,0.7c0,0.7,0.6,1.3,1.3,1.4c0.1,0,0.1,0,0.2,0
        c0.9,0,1.6-0.8,1.6-1.8c0,0,0,0,0,0c0-1-0.8-1.8-1.8-1.8c0,0-0.1,0-0.1,0c-1.3,0-2.5,1-3.4,2.7l0,0l0.3-2.6h-0.6l-3.7,1.4v0.6
        l1.6,0.7v6.4h-1.4v1L185.8,117.7z M176.3,111.4h-3.5c0.2-2.5,0.9-2.9,1.9-2.9C175.8,108.5,176.2,109.1,176.3,111.4 M178.7,116.4
        l-0.4-0.7c-0.9,0.4-1.9,0.6-2.8,0.6c-2,0-2.7-0.8-2.7-3.8v0h6.3c-0.1-3.6-2-5.1-4.4-5.1c-2.8,0-5.1,2.3-5,5.1c0,0.1,0,0.2,0,0.2
        c0,2.8,1.6,5.1,4.9,5.1C176.1,117.9,177.6,117.3,178.7,116.4 M162.4,117.7v-1h-1.1v-6.2c0.6-0.7,1.5-1.1,2.4-1.1
        c0.8,0,1.2,0.3,1.2,1.2v6.2h-1.1v1h5.1v-1h-1.2v-5.9c0-2-1-3.4-2.9-3.4c-1.6,0-2.8,1.1-3.9,2.5l0,0l0.4-2.5v-5.3h-0.6l-3.8,1.4v0.6
        l1.6,0.7v11.9h-1.4v1L162.4,117.7z M156.3,116.5l-0.4-0.7c-0.8,0.3-1.6,0.5-2.5,0.5c-1.7,0-2.9-0.6-2.9-4c0-3.2,1-3.9,2.6-3.9
        c0.4,0,0.9,0,1.3,0.2v0.1c-0.7,0.2-1.1,1-0.9,1.8c0.2,0.6,0.8,1,1.4,1c0.8,0,1.5-0.7,1.5-1.5c0,0,0,0,0,0c0-1.7-1.5-2.6-3.6-2.6
        c-2.9-0.1-5.3,2.1-5.4,5c0,0.1,0,0.2,0,0.3c-0.2,2.7,1.9,5.1,4.7,5.2c0.1,0,0.3,0,0.4,0C153.9,117.9,155.2,117.4,156.3,116.5
        M139.6,115c0-0.9,0.3-1.3,1.6-1.7l1.4-0.5v2.3c-0.4,0.7-1.2,1.1-2,1.1C140,116.2,139.6,115.9,139.6,115 M142.6,116
        c0,1,0.8,1.9,1.8,1.9c0.1,0,0.2,0,0.3,0c0.8,0,1.5-0.3,2.1-0.7v-0.7c-1.2-0.1-1.4-0.2-1.4-0.8v-3.6c0-3.6-1.5-4.7-4.1-4.7
        c-1.9,0-4.2,0.8-4.2,2.6c-0.1,0.8,0.5,1.4,1.3,1.5c0,0,0.1,0,0.1,0c0.7,0,1.3-0.5,1.3-1.2c0,0,0,0,0-0.1c0-0.6-0.3-1.1-0.9-1.3
        v-0.1c0.4-0.2,0.8-0.2,1.3-0.2c1.6,0,2.4,0.4,2.4,1.9v1.5l-1.7,0.3c-2.8,0.5-4.1,1.4-4.1,3.2c0,1.3,1.1,2.4,2.4,2.3
        c0.1,0,0.2,0,0.2,0C140.7,117.8,141.9,117.1,142.6,116 M133.1,111.4h-3.5c0.2-2.5,0.9-2.9,1.9-2.9
        C132.6,108.5,133,109.1,133.1,111.4 M135.5,116.4l-0.4-0.7c-0.9,0.4-1.9,0.6-2.8,0.6c-2,0-2.7-0.8-2.7-3.8v0h6.3
        c-0.1-3.6-2-5.1-4.4-5.1c-2.8,0-5.1,2.3-5,5.1c0,0.1,0,0.2,0,0.2c0,2.8,1.6,5.1,4.9,5.1C132.9,117.9,134.3,117.4,135.5,116.4
        M123.6,117.7V117l-2.1-0.5v-12.2l2.2,0.3l2.3,4.3l0.6-0.1l-0.3-5.4h-13l-0.3,5.4l0.6,0.1l2.3-4.3l2.2-0.3v12.2L116,117v0.7
        L123.6,117.7z"></path>
    </g>
</svg>