<?xml version="1.0" encoding="utf-8"?>
<svg version="1.1" id="Layer_1" xmlns="http://www.w3.org/2000/svg" xmlns:xlink="http://www.w3.org/1999/xlink" x="0px" y="0px" viewBox="0 0 61.7 61.8" style="enable-background:new 0 0 61.7 61.8;" xml:space="preserve" class="logo__emblem">
    <style type="text/css">
        .st0 {
            fill: url(#Path_292_1_);
        }

        .st1 {
            fill: url(#Path_293_1_);
        }
    </style>
    <g>
        <linearGradient id="Path_292_1_" gradientUnits="userSpaceOnUse" x1="-259.7413" y1="447.7937" x2="-260.4303" y2="447.1017" gradientTransform="matrix(49.628 0 0 -49.351 12938.7568 22112.5156)">
            <stop offset="0" style="stop-color:#004784" class="logo__colour"></stop>
            <stop offset="1" style="stop-color:#009D9A" class="logo__colour"></stop>
        </linearGradient>
        <path id="Path_292" class="st0 logo__colour" d="M43.2,9.4l-8.5,5.5c-0.3,0.2-0.7,0.2-1-0.1s-0.2-0.7,0.1-1c0,0,0.1,0,0.1-0.1L41.3,9L43.2,9.4z
        M20.4,52.8l7.3-4.8c0.3-0.2,0.5-0.6,0.3-0.9s-0.6-0.5-0.9-0.3c0,0-0.1,0-0.1,0.1l-8.5,5.5L20.4,52.8z M47.4,12.5L38,16.1
        c-0.3,0.2-0.8,0-0.9-0.3c-0.2-0.3,0-0.8,0.3-0.9c0,0,0.1,0,0.1-0.1l8.2-3.1L47.4,12.5z M16,50.2l8.2-3.1c0.3-0.2,0.5-0.6,0.3-0.9
        c-0.2-0.3-0.5-0.4-0.8-0.4l-9.5,3.6L16,50.2z M50.9,16.3l-10,1.6c-0.4,0-0.7-0.3-0.7-0.7c0-0.3,0.2-0.6,0.5-0.7l8.6-1.4L50.9,16.3z
        M12.4,46.7l8.6-1.4c0.4,0,0.7-0.4,0.7-0.7c0-0.4-0.4-0.7-0.7-0.7c0,0-0.1,0-0.1,0l-10,1.6L12.4,46.7z M53.5,20.8l-10.1-0.5
        c-0.4,0-0.7-0.3-0.7-0.7c0-0.4,0.3-0.7,0.7-0.7c0,0,0.1,0,0.1,0l8.7,0.5L53.5,20.8z M9.5,42.5l8.7,0.5c0.4,0.1,0.7-0.2,0.8-0.6
        c0.1-0.4-0.2-0.7-0.6-0.8c0,0-0.1,0-0.1,0L8.2,41L9.5,42.5z M55.1,25.7l-9.8-2.6c-0.4-0.1-0.6-0.4-0.6-0.8s0.4-0.6,0.8-0.6
        c0,0,0.1,0,0.1,0l8.4,2.3L55.1,25.7z M7.6,37.8L16,40c0.4,0.1,0.7-0.2,0.8-0.6c0.1-0.3-0.1-0.7-0.4-0.8l-9.8-2.6L7.6,37.8z
        M55.7,30.9l-9-4.6c-0.4-0.1-0.5-0.5-0.4-0.9c0.1-0.4,0.5-0.5,0.9-0.4c0,0,0.1,0,0.1,0.1l7.8,4L55.7,30.9z M6.6,32.8l7.8,4
        c0.4,0.1,0.8,0,0.9-0.4c0.1-0.3,0-0.7-0.3-0.8l-9-4.6L6.6,32.8z M55.1,36.1l-7.9-6.4c-0.3-0.3-0.3-0.7,0-1c0.2-0.2,0.6-0.3,0.9-0.1
        l6.8,5.5L55.1,36.1z M6.8,27.7l6.8,5.5c0.3,0.3,0.7,0.3,1,0c0.3-0.3,0.3-0.7,0-1c0,0-0.1-0.1-0.1-0.1l-7.9-6.4L6.8,27.7z M53.5,41
        l-6.4-7.9c-0.3-0.3-0.3-0.7,0-1c0.3-0.3,0.7-0.3,1,0c0,0,0.1,0.1,0.1,0.1l5.5,6.8L53.5,41z M8,22.8l5.5,6.8c0.3,0.3,0.7,0.3,1,0
        c0.2-0.2,0.3-0.6,0.1-0.9l-6.4-7.9L8,22.8z M50.9,45.5l-4.6-9c-0.1-0.4,0-0.8,0.4-0.9c0.3-0.1,0.7,0,0.9,0.3l4,7.8L50.9,45.5z
        M10.2,18.2l4,7.8c0.1,0.4,0.5,0.5,0.9,0.4c0.4-0.1,0.5-0.5,0.4-0.9c0,0,0-0.1-0.1-0.1l-4.6-9L10.2,18.2z M47.4,49.3l-2.6-9.8
        c-0.1-0.4,0-0.8,0.4-0.9c0.4-0.1,0.8,0,0.9,0.4c0,0,0,0.1,0,0.1l2.3,8.4L47.4,49.3z M13.2,14.2l2.3,8.4c0.1,0.4,0.5,0.5,0.9,0.4
        c0.3-0.1,0.5-0.4,0.4-0.8l-2.6-9.8L13.2,14.2z M43.2,52.4l-0.5-10.1c0-0.4,0.3-0.7,0.7-0.7c0.3,0,0.6,0.3,0.7,0.6l0.5,8.7
        L43.2,52.4z M17.1,10.9l0.5,8.7c0.1,0.4,0.4,0.6,0.8,0.6c0.3,0,0.6-0.3,0.6-0.7L18.4,9.4L17.1,10.9z M38.5,54.5l1.6-10
        c0.1-0.4,0.5-0.6,0.9-0.5c0.3,0.1,0.5,0.4,0.5,0.7l-1.4,8.6L38.5,54.5z M21.6,8.5l-1.4,8.6c0,0.4,0.3,0.7,0.7,0.7
        c0.3,0,0.6-0.2,0.7-0.5l1.6-10L21.6,8.5z M33.4,55.6l3.6-9.5c0.1-0.4,0.5-0.6,0.9-0.5s0.6,0.5,0.5,0.9c0,0,0,0.1-0.1,0.1l-3.1,8.2
        L33.4,55.6z M26.4,7l-3.1,8.2c-0.1,0.4,0.1,0.8,0.5,0.9c0.3,0.1,0.7-0.1,0.8-0.4l3.6-9.5L26.4,7z M28.2,55.6l5.5-8.5
        c0.2-0.3,0.7-0.4,1-0.1c0.3,0.2,0.3,0.6,0.2,0.9l-4.8,7.3L28.2,55.6z M31.5,6.6L26.7,14c-0.2,0.3,0,0.8,0.3,0.9
        c0.3,0.2,0.7,0.1,0.9-0.2l5.5-8.5L31.5,6.6z M23.2,54.5l7.2-7.2c0.2-0.3,0.7-0.3,1-0.1c0.3,0.2,0.3,0.7,0.1,1c0,0-0.1,0.1-0.1,0.1
        l-6.2,6.2H23.2z M36.5,7.3l-6.2,6.2c-0.3,0.2-0.3,0.7-0.1,1c0.2,0.3,0.7,0.3,1,0.1c0,0,0.1-0.1,0.1-0.1l7.2-7.2H36.5z"></path>

        <linearGradient id="Path_293_1_" gradientUnits="userSpaceOnUse" x1="-261.4935" y1="448.6829" x2="-260.7925" y2="449.3799" gradientTransform="matrix(61.6765 0 0 -61.8212 16137.0605 27790.7324)">
            <stop offset="0" style="stop-color:#004784" class="logo__colour"></stop>
            <stop offset="1" style="stop-color:#009D9A" class="logo__colour"></stop>
        </linearGradient>
        <path id="Path_293" class="st1 logo__colour" d="M36.6,1.7c-0.2-0.3-0.1-0.8,0.3-0.9c0.3-0.2,0.7-0.1,0.9,0.2l5.5,8.5L41.3,9L36.6,1.7z
        M20.4,52.8l-1.9-0.4l5.5,8.5c0.2,0.3,0.7,0.4,1,0.1c0.3-0.2,0.3-0.6,0.2-0.9L20.4,52.8z M42.5,3.5c-0.1-0.4,0.1-0.8,0.5-0.9
        c0.3-0.1,0.7,0.1,0.8,0.4l3.6,9.4l-1.8-0.8L42.5,3.5z M16,50.2l-1.8-0.8l3.6,9.4c0.2,0.3,0.6,0.5,0.9,0.3c0.3-0.2,0.4-0.5,0.4-0.8
        L16,50.2z M47.9,6.6c0-0.4,0.3-0.7,0.7-0.7c0.3,0,0.6,0.2,0.7,0.5l1.6,10l-1.6-1.2L47.9,6.6z M12.4,46.7l-1.6-1.2l1.6,10
        c0,0.4,0.4,0.7,0.7,0.7c0.4,0,0.7-0.4,0.7-0.7c0,0,0-0.1,0-0.1L12.4,46.7z M52.6,10.6c0-0.4,0.3-0.7,0.7-0.7s0.7,0.3,0.7,0.7
        c0,0,0,0.1,0,0.1l-0.5,10.1l-1.3-1.5L52.6,10.6z M9.5,42.5L8.2,41L7.6,51.1c0,0.4,0.3,0.7,0.7,0.7c0.3,0,0.6-0.3,0.7-0.6L9.5,42.5z
        M56.4,15.6c0.1-0.4,0.4-0.6,0.8-0.6s0.6,0.4,0.6,0.8c0,0,0,0.1,0,0.1l-2.6,9.8l-1-1.7L56.4,15.6z M7.6,37.8l-1-1.7L4,45.8
        c-0.1,0.4,0.2,0.7,0.6,0.8c0.3,0.1,0.7-0.1,0.8-0.4L7.6,37.8z M59,21.3c0.1-0.4,0.5-0.5,0.9-0.4c0.4,0.1,0.5,0.5,0.4,0.9
        c0,0,0,0.1-0.1,0.1l-4.6,9L55,29L59,21.3z M6.6,32.8L6,30.9l-4.6,9c-0.1,0.4,0,0.8,0.4,0.9c0.3,0.1,0.7,0,0.8-0.3L6.6,32.8z
        M60.4,27.3c0.2-0.3,0.6-0.4,1-0.2c0.3,0.2,0.4,0.6,0.2,1c0,0-0.1,0.1-0.1,0.1l-6.4,7.9l-0.2-2L60.4,27.3z M6.8,27.7l-0.2-2
        l-6.4,7.9c-0.3,0.3-0.3,0.7,0,1c0.3,0.3,0.7,0.3,1,0c0,0,0.1-0.1,0.1-0.1L6.8,27.7z M60.5,33.5c0.3-0.2,0.8-0.1,1,0.2
        c0.2,0.3,0.1,0.7-0.1,0.9L53.5,41l0.2-2L60.5,33.5z M8,22.8l0.2-2l-7.9,6.4c-0.3,0.3-0.3,0.7,0,1c0.2,0.2,0.6,0.3,0.9,0.1L8,22.8z
        M59.3,39.7c0.3-0.2,0.8-0.1,1,0.2c0.2,0.3,0.1,0.8-0.2,1c0,0-0.1,0-0.1,0.1l-9,4.6l0.6-1.9L59.3,39.7z M10.2,18.2l0.6-1.9l-9,4.6
        c-0.4,0.1-0.5,0.5-0.4,0.9c0.1,0.4,0.5,0.5,0.9,0.4c0,0,0.1,0,0.1-0.1L10.2,18.2z M56.9,45.4c0.4-0.1,0.8,0,0.9,0.4
        c0.1,0.4,0,0.8-0.4,0.9c0,0-0.1,0-0.1,0l-9.8,2.6l1-1.7L56.9,45.4z M13.2,14.2l1-1.7l-9.8,2.6c-0.4,0.1-0.6,0.4-0.6,0.8
        c0.1,0.4,0.4,0.6,0.8,0.6c0,0,0.1,0,0.1,0L13.2,14.2z M53.3,50.5c0.4-0.1,0.7,0.2,0.8,0.6c0.1,0.4-0.2,0.7-0.6,0.8c0,0-0.1,0-0.1,0
        l-10.1,0.5l1.3-1.5L53.3,50.5z M17.1,10.9l1.3-1.5L8.3,10c-0.4,0-0.7,0.3-0.7,0.7c0,0.4,0.3,0.7,0.7,0.7c0,0,0.1,0,0.1,0L17.1,10.9
        z M48.7,54.7c0.4,0.1,0.6,0.5,0.5,0.9c-0.1,0.3-0.4,0.5-0.7,0.5l-10-1.6l1.6-1.2L48.7,54.7z M21.6,8.5l1.6-1.2l-10-1.6
        c-0.4,0-0.7,0.3-0.7,0.7c0,0.3,0.2,0.6,0.5,0.7L21.6,8.5z M43.4,57.9c0.4,0.1,0.6,0.5,0.5,0.9s-0.5,0.6-0.9,0.5c0,0-0.1,0-0.1-0.1
        l-9.4-3.6l1.8-0.8L43.4,57.9z M26.4,7l1.8-0.8l-9.4-3.6c-0.3-0.2-0.8,0-0.9,0.3s0,0.8,0.3,0.9c0,0,0.1,0,0.1,0.1L26.4,7z
        M37.5,59.9c0.3,0.2,0.5,0.6,0.3,0.9c-0.2,0.3-0.6,0.5-0.9,0.3c0,0-0.1,0-0.1-0.1l-8.5-5.5l1.9-0.4L37.5,59.9z M31.5,6.6l1.9-0.4
        l-8.5-5.5C24.6,0.5,24.2,0.7,24,1c-0.2,0.3-0.1,0.7,0.2,0.9L31.5,6.6z M31.3,60.7c0.2,0.3,0.2,0.7-0.1,1c-0.3,0.2-0.6,0.2-0.9,0
        l-7.2-7.2h2L31.3,60.7z M36.5,7.3h2l-7.2-7.2c-0.3-0.2-0.7-0.2-1,0.1c-0.2,0.3-0.2,0.6,0,0.9L36.5,7.3z"></path>
    </g>
</svg>