<?xml version="1.0" encoding="utf-8"?>
<!-- Generator: Adobe Illustrator 23.0.4, SVG Export Plug-In . SVG Version: 6.00 Build 0)  -->
<svg version="1.1" id="Layer_1" xmlns="http://www.w3.org/2000/svg" xmlns:xlink="http://www.w3.org/1999/xlink" x="0px" y="0px"
	 viewBox="0 0 462.05 159.68" style="enable-background:new 0 0 462.05 159.68;" xml:space="preserve">
<style type="text/css">
	.st0{fill:#72297C;}
</style>
<g>
	<path class="st0" d="M307.93,10.41l-26.9,2.35l10.7,122.33l26.9-2.35c33.5-2.93,54.85-9.6,49.91-66.06
		C363.61,10.36,341.4,7.48,307.93,10.41z M324.62,110.66l-7.05,0.62l-6.96-79.55l7.2-0.63c10.14-0.89,19.89,2.09,23.01,37.83
		C343.95,104.66,335.07,109.74,324.62,110.66z"/>
	<polygon class="st0" points="73.88,130.59 36.36,133.87 27.7,34.92 0,37.35 10.7,159.68 71.25,154.38 	"/>
	<polygon class="st0" points="256.93,138.13 283.43,135.82 265.84,14.1 230.92,17.16 223.5,98.72 223.49,98.71 202.03,19.67 
		167.1,22.73 170.92,145.66 197.42,143.34 193.01,68.89 195.36,68.68 215.7,141.74 238.64,139.74 238.65,139.74 245.99,64.25 
		248.34,64.05 	"/>
	<path class="st0" d="M462.05,120.19L426.89,0l-40.33,3.53L372.8,128l28.9-2.53l1.46-20.78c3.74-1.4,7.9-2.35,12.32-2.74
		c4.43-0.39,8.69-0.17,12.61,0.56l5.05,20.21L462.05,120.19z M413.51,79.4c-2.94,0.26-5.83,0.64-8.65,1.13l3.37-47.93l2.35-0.2l0,0
		l11.65,46.61C419.37,79.02,416.46,79.15,413.51,79.4z"/>
	<path class="st0" d="M167.03,146L131.87,25.81l-40.33,3.53L77.78,153.81l28.9-2.53l1.42-20.22c4.11,0.15,8.33,0.05,12.63-0.32
		c4.29-0.37,8.47-1.01,12.49-1.88l4.91,19.67L167.03,146z M118.76,108.2c-3.11,0.27-6.15,0.24-9.04-0.05l3.5-49.73l2.35-0.2v0
		l12.09,48.37C124.85,107.37,121.87,107.93,118.76,108.2z"/>
</g>
</svg>
